<mxfile host="app.diagrams.net" agent="Mozilla/5.0 (Windows NT 10.0; Win64; x64) AppleWebKit/537.36 (KHTML, like Gecko) Chrome/127.0.0.0 Safari/537.36" version="24.7.7" pages="2">
  <diagram name="Page-1" id="b520641d-4fe3-3701-9064-5fc419738815">
    <mxGraphModel dx="2451" dy="1788" grid="1" gridSize="10" guides="1" tooltips="1" connect="1" arrows="1" fold="1" page="1" pageScale="1" pageWidth="1100" pageHeight="850" background="none" math="0" shadow="0">
      <root>
        <mxCell id="0" />
        <mxCell id="1" parent="0" />
        <mxCell id="N0wZfw24Igy4qFA5nrtg-36" style="edgeStyle=orthogonalEdgeStyle;rounded=0;orthogonalLoop=1;jettySize=auto;html=1;exitX=0.5;exitY=1;exitDx=0;exitDy=0;strokeWidth=5;fillColor=#d5e8d4;strokeColor=#97D077;" edge="1" parent="1" source="N0wZfw24Igy4qFA5nrtg-2" target="N0wZfw24Igy4qFA5nrtg-34">
          <mxGeometry relative="1" as="geometry" />
        </mxCell>
        <mxCell id="N0wZfw24Igy4qFA5nrtg-7" style="edgeStyle=orthogonalEdgeStyle;rounded=0;orthogonalLoop=1;jettySize=auto;html=1;exitX=0.5;exitY=1;exitDx=0;exitDy=0;entryX=0.5;entryY=0;entryDx=0;entryDy=0;strokeWidth=5;fillColor=#ffe6cc;strokeColor=#d79b00;" edge="1" parent="1" source="cUS8VH8UwONtFn9sA2R1-51" target="N0wZfw24Igy4qFA5nrtg-1">
          <mxGeometry relative="1" as="geometry" />
        </mxCell>
        <mxCell id="N0wZfw24Igy4qFA5nrtg-8" style="edgeStyle=orthogonalEdgeStyle;rounded=0;orthogonalLoop=1;jettySize=auto;html=1;exitX=0.5;exitY=1;exitDx=0;exitDy=0;entryX=0.5;entryY=0;entryDx=0;entryDy=0;strokeWidth=5;fillColor=#dae8fc;strokeColor=#6c8ebf;" edge="1" parent="1" source="cUS8VH8UwONtFn9sA2R1-51" target="N0wZfw24Igy4qFA5nrtg-2">
          <mxGeometry relative="1" as="geometry" />
        </mxCell>
        <mxCell id="cUS8VH8UwONtFn9sA2R1-51" value="Neolithic Start" style="swimlane;html=1;fontStyle=0;childLayout=stackLayout;horizontal=1;startSize=26;fillColor=#e0e0e0;horizontalStack=0;resizeParent=1;resizeLast=0;collapsible=1;marginBottom=0;swimlaneFillColor=#ffffff;align=center;rounded=1;shadow=0;comic=0;labelBackgroundColor=none;strokeWidth=1;fontFamily=Verdana;fontSize=12" parent="1" vertex="1">
          <mxGeometry x="-120" y="-30" width="160" height="110" as="geometry">
            <mxRectangle x="-20" y="100" width="90" height="30" as="alternateBounds" />
          </mxGeometry>
        </mxCell>
        <mxCell id="N0wZfw24Igy4qFA5nrtg-11" style="edgeStyle=orthogonalEdgeStyle;rounded=0;orthogonalLoop=1;jettySize=auto;html=1;exitX=0.5;exitY=1;exitDx=0;exitDy=0;entryX=0.5;entryY=0;entryDx=0;entryDy=0;fillColor=#f8cecc;strokeColor=#b85450;strokeWidth=5;" edge="1" parent="1" source="N0wZfw24Igy4qFA5nrtg-1" target="N0wZfw24Igy4qFA5nrtg-4">
          <mxGeometry relative="1" as="geometry" />
        </mxCell>
        <mxCell id="N0wZfw24Igy4qFA5nrtg-12" style="edgeStyle=orthogonalEdgeStyle;rounded=0;orthogonalLoop=1;jettySize=auto;html=1;exitX=0.5;exitY=1;exitDx=0;exitDy=0;entryX=0.5;entryY=0;entryDx=0;entryDy=0;strokeWidth=5;fillColor=#ffe6cc;strokeColor=#d79b00;" edge="1" parent="1" source="N0wZfw24Igy4qFA5nrtg-1" target="N0wZfw24Igy4qFA5nrtg-3">
          <mxGeometry relative="1" as="geometry" />
        </mxCell>
        <mxCell id="N0wZfw24Igy4qFA5nrtg-1" value="Hunter Tribe" style="swimlane;html=1;fontStyle=0;childLayout=stackLayout;horizontal=1;startSize=26;fillColor=#e0e0e0;horizontalStack=0;resizeParent=1;resizeLast=0;collapsible=1;marginBottom=0;swimlaneFillColor=#ffffff;align=center;rounded=1;shadow=0;comic=0;labelBackgroundColor=none;strokeWidth=1;fontFamily=Verdana;fontSize=12" vertex="1" parent="1">
          <mxGeometry x="-240" y="160" width="160" height="110" as="geometry">
            <mxRectangle x="-20" y="100" width="90" height="30" as="alternateBounds" />
          </mxGeometry>
        </mxCell>
        <mxCell id="N0wZfw24Igy4qFA5nrtg-25" value="Regular neolithic content with focus on warfare &amp;amp; hunting" style="rounded=0;whiteSpace=wrap;html=1;" vertex="1" parent="N0wZfw24Igy4qFA5nrtg-1">
          <mxGeometry y="26" width="160" height="60" as="geometry" />
        </mxCell>
        <mxCell id="N0wZfw24Igy4qFA5nrtg-10" style="edgeStyle=orthogonalEdgeStyle;rounded=0;orthogonalLoop=1;jettySize=auto;html=1;exitX=0.5;exitY=1;exitDx=0;exitDy=0;strokeWidth=5;fillColor=#d5e8d4;strokeColor=#67AB9F;" edge="1" parent="1" source="N0wZfw24Igy4qFA5nrtg-2" target="N0wZfw24Igy4qFA5nrtg-6">
          <mxGeometry relative="1" as="geometry" />
        </mxCell>
        <mxCell id="N0wZfw24Igy4qFA5nrtg-2" value="Sedentary Tribe" style="swimlane;html=1;fontStyle=0;childLayout=stackLayout;horizontal=1;startSize=26;fillColor=#e0e0e0;horizontalStack=0;resizeParent=1;resizeLast=0;collapsible=1;marginBottom=0;swimlaneFillColor=#ffffff;align=center;rounded=1;shadow=0;comic=0;labelBackgroundColor=none;strokeWidth=1;fontFamily=Verdana;fontSize=12" vertex="1" parent="1">
          <mxGeometry y="160" width="160" height="110" as="geometry">
            <mxRectangle x="-20" y="100" width="90" height="30" as="alternateBounds" />
          </mxGeometry>
        </mxCell>
        <mxCell id="N0wZfw24Igy4qFA5nrtg-26" value="Regular neolithic content with focus on civil tech, healthcare &amp;amp; animal husbandry" style="rounded=0;whiteSpace=wrap;html=1;" vertex="1" parent="N0wZfw24Igy4qFA5nrtg-2">
          <mxGeometry y="26" width="160" height="60" as="geometry" />
        </mxCell>
        <mxCell id="N0wZfw24Igy4qFA5nrtg-14" style="edgeStyle=orthogonalEdgeStyle;rounded=0;orthogonalLoop=1;jettySize=auto;html=1;exitX=0.5;exitY=1;exitDx=0;exitDy=0;entryX=0.5;entryY=0;entryDx=0;entryDy=0;strokeWidth=5;fillColor=#ffe6cc;strokeColor=#d79b00;" edge="1" parent="1" source="N0wZfw24Igy4qFA5nrtg-3" target="N0wZfw24Igy4qFA5nrtg-13">
          <mxGeometry relative="1" as="geometry" />
        </mxCell>
        <mxCell id="N0wZfw24Igy4qFA5nrtg-3" value="Scrapper Tribe" style="swimlane;html=1;fontStyle=0;childLayout=stackLayout;horizontal=1;startSize=26;fillColor=#e0e0e0;horizontalStack=0;resizeParent=1;resizeLast=0;collapsible=1;marginBottom=0;swimlaneFillColor=#ffffff;align=center;rounded=1;shadow=0;comic=0;labelBackgroundColor=none;strokeWidth=1;fontFamily=Verdana;fontSize=12" vertex="1" parent="1">
          <mxGeometry x="-240" y="350" width="160" height="110" as="geometry">
            <mxRectangle x="-20" y="100" width="90" height="30" as="alternateBounds" />
          </mxGeometry>
        </mxCell>
        <mxCell id="N0wZfw24Igy4qFA5nrtg-23" value="Nomadic playstyle - living off the land - scavenging junk&amp;nbsp;" style="rounded=0;whiteSpace=wrap;html=1;" vertex="1" parent="N0wZfw24Igy4qFA5nrtg-3">
          <mxGeometry y="26" width="160" height="64" as="geometry" />
        </mxCell>
        <mxCell id="N0wZfw24Igy4qFA5nrtg-4" value="Ravaging Hordes" style="swimlane;html=1;fontStyle=0;childLayout=stackLayout;horizontal=1;startSize=26;fillColor=#e0e0e0;horizontalStack=0;resizeParent=1;resizeLast=0;collapsible=1;marginBottom=0;swimlaneFillColor=#ffffff;align=center;rounded=1;shadow=0;comic=0;labelBackgroundColor=none;strokeWidth=1;fontFamily=Verdana;fontSize=12" vertex="1" parent="1">
          <mxGeometry x="-480" y="350" width="160" height="110" as="geometry">
            <mxRectangle x="-20" y="100" width="90" height="30" as="alternateBounds" />
          </mxGeometry>
        </mxCell>
        <mxCell id="N0wZfw24Igy4qFA5nrtg-17" value="NPC Faction Flavour" style="rounded=0;whiteSpace=wrap;html=1;" vertex="1" parent="N0wZfw24Igy4qFA5nrtg-4">
          <mxGeometry y="26" width="160" height="64" as="geometry" />
        </mxCell>
        <mxCell id="N0wZfw24Igy4qFA5nrtg-16" style="edgeStyle=orthogonalEdgeStyle;rounded=0;orthogonalLoop=1;jettySize=auto;html=1;exitX=0.5;exitY=1;exitDx=0;exitDy=0;entryX=0.5;entryY=0;entryDx=0;entryDy=0;strokeWidth=5;fillColor=#dae8fc;strokeColor=#6c8ebf;" edge="1" parent="1" source="N0wZfw24Igy4qFA5nrtg-5" target="N0wZfw24Igy4qFA5nrtg-15">
          <mxGeometry relative="1" as="geometry" />
        </mxCell>
        <mxCell id="N0wZfw24Igy4qFA5nrtg-5" value="Medieval Society" style="swimlane;html=1;fontStyle=0;childLayout=stackLayout;horizontal=1;startSize=26;fillColor=#e0e0e0;horizontalStack=0;resizeParent=1;resizeLast=0;collapsible=1;marginBottom=0;swimlaneFillColor=#ffffff;align=center;rounded=1;shadow=0;comic=0;labelBackgroundColor=none;strokeWidth=1;fontFamily=Verdana;fontSize=12" vertex="1" parent="1">
          <mxGeometry y="350" width="160" height="110" as="geometry">
            <mxRectangle x="-20" y="100" width="90" height="30" as="alternateBounds" />
          </mxGeometry>
        </mxCell>
        <mxCell id="N0wZfw24Igy4qFA5nrtg-24" value="Regular progression - access to stone structures, arts, metalworking, etc." style="rounded=0;whiteSpace=wrap;html=1;" vertex="1" parent="N0wZfw24Igy4qFA5nrtg-5">
          <mxGeometry y="26" width="160" height="64" as="geometry" />
        </mxCell>
        <mxCell id="N0wZfw24Igy4qFA5nrtg-20" style="edgeStyle=orthogonalEdgeStyle;rounded=0;orthogonalLoop=1;jettySize=auto;html=1;exitX=0.5;exitY=1;exitDx=0;exitDy=0;strokeWidth=5;fillColor=#d5e8d4;strokeColor=#67AB9F;" edge="1" parent="1" source="N0wZfw24Igy4qFA5nrtg-6">
          <mxGeometry relative="1" as="geometry">
            <mxPoint x="319.89473684210543" y="540" as="targetPoint" />
          </mxGeometry>
        </mxCell>
        <mxCell id="N0wZfw24Igy4qFA5nrtg-6" value="Enlightened Enclave" style="swimlane;html=1;fontStyle=0;childLayout=stackLayout;horizontal=1;startSize=26;fillColor=#e0e0e0;horizontalStack=0;resizeParent=1;resizeLast=0;collapsible=1;marginBottom=0;swimlaneFillColor=#ffffff;align=center;rounded=1;shadow=0;comic=0;labelBackgroundColor=none;strokeWidth=1;fontFamily=Verdana;fontSize=12" vertex="1" parent="1">
          <mxGeometry x="240" y="350" width="160" height="110" as="geometry">
            <mxRectangle x="-20" y="100" width="90" height="30" as="alternateBounds" />
          </mxGeometry>
        </mxCell>
        <mxCell id="N0wZfw24Igy4qFA5nrtg-19" value="Anima/Psycast" style="rounded=0;whiteSpace=wrap;html=1;" vertex="1" parent="N0wZfw24Igy4qFA5nrtg-6">
          <mxGeometry y="26" width="160" height="64" as="geometry" />
        </mxCell>
        <mxCell id="N0wZfw24Igy4qFA5nrtg-13" value="Archotech Cult" style="swimlane;html=1;fontStyle=0;childLayout=stackLayout;horizontal=1;startSize=26;fillColor=#e0e0e0;horizontalStack=0;resizeParent=1;resizeLast=0;collapsible=1;marginBottom=0;swimlaneFillColor=#ffffff;align=center;rounded=1;shadow=0;comic=0;labelBackgroundColor=none;strokeWidth=1;fontFamily=Verdana;fontSize=12" vertex="1" parent="1">
          <mxGeometry x="-240" y="540" width="160" height="110" as="geometry">
            <mxRectangle x="-20" y="100" width="90" height="30" as="alternateBounds" />
          </mxGeometry>
        </mxCell>
        <mxCell id="N0wZfw24Igy4qFA5nrtg-29" value="Nomadic playstyle with occasional access to spacer+ content through looting" style="rounded=0;whiteSpace=wrap;html=1;" vertex="1" parent="N0wZfw24Igy4qFA5nrtg-13">
          <mxGeometry y="26" width="160" height="60" as="geometry" />
        </mxCell>
        <mxCell id="N0wZfw24Igy4qFA5nrtg-15" value="Industrial Society" style="swimlane;html=1;fontStyle=0;childLayout=stackLayout;horizontal=1;startSize=26;fillColor=#e0e0e0;horizontalStack=0;resizeParent=1;resizeLast=0;collapsible=1;marginBottom=0;swimlaneFillColor=#ffffff;align=center;rounded=1;shadow=0;comic=0;labelBackgroundColor=none;strokeWidth=1;fontFamily=Verdana;fontSize=12" vertex="1" parent="1">
          <mxGeometry y="540" width="160" height="110" as="geometry">
            <mxRectangle x="-20" y="100" width="90" height="30" as="alternateBounds" />
          </mxGeometry>
        </mxCell>
        <mxCell id="N0wZfw24Igy4qFA5nrtg-28" value="Regular &#39;crashlanded&#39; route" style="rounded=0;whiteSpace=wrap;html=1;" vertex="1" parent="N0wZfw24Igy4qFA5nrtg-15">
          <mxGeometry y="26" width="160" height="60" as="geometry" />
        </mxCell>
        <mxCell id="N0wZfw24Igy4qFA5nrtg-9" style="edgeStyle=orthogonalEdgeStyle;rounded=0;orthogonalLoop=1;jettySize=auto;html=1;exitX=0.5;exitY=1;exitDx=0;exitDy=0;entryX=0.5;entryY=0;entryDx=0;entryDy=0;strokeWidth=5;fillColor=#dae8fc;strokeColor=#6c8ebf;" edge="1" parent="1" source="N0wZfw24Igy4qFA5nrtg-2" target="N0wZfw24Igy4qFA5nrtg-5">
          <mxGeometry relative="1" as="geometry" />
        </mxCell>
        <mxCell id="N0wZfw24Igy4qFA5nrtg-37" style="edgeStyle=orthogonalEdgeStyle;rounded=0;orthogonalLoop=1;jettySize=auto;html=1;exitX=0.5;exitY=1;exitDx=0;exitDy=0;strokeWidth=5;fillColor=#d5e8d4;strokeColor=#97D077;" edge="1" parent="1" source="N0wZfw24Igy4qFA5nrtg-34">
          <mxGeometry relative="1" as="geometry">
            <mxPoint x="569.7368421052633" y="540" as="targetPoint" />
          </mxGeometry>
        </mxCell>
        <mxCell id="N0wZfw24Igy4qFA5nrtg-34" value="Insect Worshippers" style="swimlane;html=1;fontStyle=0;childLayout=stackLayout;horizontal=1;startSize=26;fillColor=#e0e0e0;horizontalStack=0;resizeParent=1;resizeLast=0;collapsible=1;marginBottom=0;swimlaneFillColor=#ffffff;align=center;rounded=1;shadow=0;comic=0;labelBackgroundColor=none;strokeWidth=1;fontFamily=Verdana;fontSize=12" vertex="1" parent="1">
          <mxGeometry x="490" y="350" width="160" height="110" as="geometry">
            <mxRectangle x="-20" y="100" width="90" height="30" as="alternateBounds" />
          </mxGeometry>
        </mxCell>
        <mxCell id="N0wZfw24Igy4qFA5nrtg-35" value="???" style="rounded=0;whiteSpace=wrap;html=1;" vertex="1" parent="N0wZfw24Igy4qFA5nrtg-34">
          <mxGeometry y="26" width="160" height="64" as="geometry" />
        </mxCell>
      </root>
    </mxGraphModel>
  </diagram>
  <diagram id="ecJ959xi4eK4GmRA1fdA" name="Page-2">
    <mxGraphModel dx="2485" dy="1500" grid="1" gridSize="10" guides="1" tooltips="1" connect="1" arrows="1" fold="1" page="1" pageScale="1" pageWidth="827" pageHeight="1169" math="0" shadow="0">
      <root>
        <mxCell id="0" />
        <mxCell id="1" parent="0" />
        <mxCell id="hZAWRNqIorH77saISzOP-3" value="" style="edgeStyle=orthogonalEdgeStyle;rounded=0;orthogonalLoop=1;jettySize=auto;html=1;" edge="1" parent="1" source="hZAWRNqIorH77saISzOP-1" target="hZAWRNqIorH77saISzOP-2">
          <mxGeometry relative="1" as="geometry" />
        </mxCell>
        <mxCell id="UW17VbwZ4yo-81Ci6Z1G-17" style="edgeStyle=orthogonalEdgeStyle;rounded=0;orthogonalLoop=1;jettySize=auto;html=1;exitX=0.5;exitY=1;exitDx=0;exitDy=0;entryX=0;entryY=0.5;entryDx=0;entryDy=0;" edge="1" parent="1" source="hZAWRNqIorH77saISzOP-1" target="UW17VbwZ4yo-81Ci6Z1G-16">
          <mxGeometry relative="1" as="geometry" />
        </mxCell>
        <mxCell id="UW17VbwZ4yo-81Ci6Z1G-21" style="edgeStyle=orthogonalEdgeStyle;rounded=0;orthogonalLoop=1;jettySize=auto;html=1;exitX=0.5;exitY=1;exitDx=0;exitDy=0;entryX=0;entryY=0.5;entryDx=0;entryDy=0;" edge="1" parent="1" source="hZAWRNqIorH77saISzOP-1" target="UW17VbwZ4yo-81Ci6Z1G-14">
          <mxGeometry relative="1" as="geometry" />
        </mxCell>
        <mxCell id="UW17VbwZ4yo-81Ci6Z1G-26" style="edgeStyle=orthogonalEdgeStyle;rounded=0;orthogonalLoop=1;jettySize=auto;html=1;exitX=0.5;exitY=0;exitDx=0;exitDy=0;entryX=0;entryY=0.5;entryDx=0;entryDy=0;" edge="1" parent="1" source="hZAWRNqIorH77saISzOP-1" target="UW17VbwZ4yo-81Ci6Z1G-18">
          <mxGeometry relative="1" as="geometry" />
        </mxCell>
        <mxCell id="hZAWRNqIorH77saISzOP-1" value="&lt;font style=&quot;font-size: 18px;&quot;&gt;Crafting&lt;/font&gt;" style="rounded=1;whiteSpace=wrap;html=1;fillColor=#e1d5e7;strokeColor=#9673a6;" vertex="1" parent="1">
          <mxGeometry x="-630" y="510" width="120" height="60" as="geometry" />
        </mxCell>
        <mxCell id="hZAWRNqIorH77saISzOP-5" value="" style="edgeStyle=orthogonalEdgeStyle;rounded=0;orthogonalLoop=1;jettySize=auto;html=1;" edge="1" parent="1" source="hZAWRNqIorH77saISzOP-2" target="hZAWRNqIorH77saISzOP-4">
          <mxGeometry relative="1" as="geometry" />
        </mxCell>
        <mxCell id="UW17VbwZ4yo-81Ci6Z1G-20" style="edgeStyle=orthogonalEdgeStyle;rounded=0;orthogonalLoop=1;jettySize=auto;html=1;exitX=0.5;exitY=0;exitDx=0;exitDy=0;entryX=0;entryY=0.5;entryDx=0;entryDy=0;" edge="1" parent="1" source="hZAWRNqIorH77saISzOP-2" target="UW17VbwZ4yo-81Ci6Z1G-12">
          <mxGeometry relative="1" as="geometry" />
        </mxCell>
        <mxCell id="UW17VbwZ4yo-81Ci6Z1G-61" style="edgeStyle=orthogonalEdgeStyle;rounded=0;orthogonalLoop=1;jettySize=auto;html=1;exitX=0.5;exitY=0;exitDx=0;exitDy=0;entryX=0;entryY=0.5;entryDx=0;entryDy=0;" edge="1" parent="1" source="hZAWRNqIorH77saISzOP-2" target="UW17VbwZ4yo-81Ci6Z1G-59">
          <mxGeometry relative="1" as="geometry" />
        </mxCell>
        <mxCell id="hZAWRNqIorH77saISzOP-2" value="&lt;font style=&quot;font-size: 18px;&quot;&gt;Tools&lt;/font&gt;" style="whiteSpace=wrap;html=1;rounded=1;fillColor=#e1d5e7;strokeColor=#9673a6;" vertex="1" parent="1">
          <mxGeometry x="-440" y="510" width="120" height="60" as="geometry" />
        </mxCell>
        <mxCell id="hZAWRNqIorH77saISzOP-7" value="" style="edgeStyle=orthogonalEdgeStyle;rounded=0;orthogonalLoop=1;jettySize=auto;html=1;" edge="1" parent="1" source="hZAWRNqIorH77saISzOP-4" target="hZAWRNqIorH77saISzOP-6">
          <mxGeometry relative="1" as="geometry" />
        </mxCell>
        <mxCell id="hZAWRNqIorH77saISzOP-4" value="&lt;font style=&quot;font-size: 18px;&quot;&gt;Stonecutting&lt;/font&gt;" style="whiteSpace=wrap;html=1;rounded=1;" vertex="1" parent="1">
          <mxGeometry x="-230" y="510" width="120" height="60" as="geometry" />
        </mxCell>
        <mxCell id="UW17VbwZ4yo-81Ci6Z1G-2" value="" style="edgeStyle=orthogonalEdgeStyle;rounded=0;orthogonalLoop=1;jettySize=auto;html=1;" edge="1" parent="1" source="hZAWRNqIorH77saISzOP-6" target="UW17VbwZ4yo-81Ci6Z1G-1">
          <mxGeometry relative="1" as="geometry" />
        </mxCell>
        <mxCell id="UW17VbwZ4yo-81Ci6Z1G-24" style="edgeStyle=orthogonalEdgeStyle;rounded=0;orthogonalLoop=1;jettySize=auto;html=1;exitX=0.5;exitY=0;exitDx=0;exitDy=0;entryX=0;entryY=0.5;entryDx=0;entryDy=0;" edge="1" parent="1" source="hZAWRNqIorH77saISzOP-6" target="UW17VbwZ4yo-81Ci6Z1G-22">
          <mxGeometry relative="1" as="geometry" />
        </mxCell>
        <mxCell id="UW17VbwZ4yo-81Ci6Z1G-35" style="edgeStyle=orthogonalEdgeStyle;rounded=0;orthogonalLoop=1;jettySize=auto;html=1;exitX=0.5;exitY=1;exitDx=0;exitDy=0;entryX=0;entryY=0.5;entryDx=0;entryDy=0;" edge="1" parent="1" source="hZAWRNqIorH77saISzOP-6" target="UW17VbwZ4yo-81Ci6Z1G-33">
          <mxGeometry relative="1" as="geometry" />
        </mxCell>
        <mxCell id="UW17VbwZ4yo-81Ci6Z1G-36" style="edgeStyle=orthogonalEdgeStyle;rounded=0;orthogonalLoop=1;jettySize=auto;html=1;exitX=0.5;exitY=1;exitDx=0;exitDy=0;entryX=0;entryY=0.5;entryDx=0;entryDy=0;" edge="1" parent="1" source="hZAWRNqIorH77saISzOP-6" target="UW17VbwZ4yo-81Ci6Z1G-34">
          <mxGeometry relative="1" as="geometry" />
        </mxCell>
        <mxCell id="hZAWRNqIorH77saISzOP-6" value="&lt;font style=&quot;font-size: 18px;&quot;&gt;Smithing&lt;/font&gt;" style="whiteSpace=wrap;html=1;rounded=1;" vertex="1" parent="1">
          <mxGeometry x="130" y="510" width="120" height="60" as="geometry" />
        </mxCell>
        <mxCell id="UW17VbwZ4yo-81Ci6Z1G-44" style="edgeStyle=orthogonalEdgeStyle;rounded=0;orthogonalLoop=1;jettySize=auto;html=1;exitX=0.5;exitY=1;exitDx=0;exitDy=0;entryX=0;entryY=0.5;entryDx=0;entryDy=0;" edge="1" parent="1" source="UW17VbwZ4yo-81Ci6Z1G-1" target="UW17VbwZ4yo-81Ci6Z1G-42">
          <mxGeometry relative="1" as="geometry" />
        </mxCell>
        <mxCell id="UW17VbwZ4yo-81Ci6Z1G-81" style="edgeStyle=orthogonalEdgeStyle;rounded=0;orthogonalLoop=1;jettySize=auto;html=1;exitX=0.5;exitY=0;exitDx=0;exitDy=0;entryX=0;entryY=0.5;entryDx=0;entryDy=0;" edge="1" parent="1" source="UW17VbwZ4yo-81Ci6Z1G-1" target="UW17VbwZ4yo-81Ci6Z1G-48">
          <mxGeometry relative="1" as="geometry" />
        </mxCell>
        <mxCell id="UW17VbwZ4yo-81Ci6Z1G-83" value="" style="edgeStyle=orthogonalEdgeStyle;rounded=0;orthogonalLoop=1;jettySize=auto;html=1;" edge="1" parent="1" source="UW17VbwZ4yo-81Ci6Z1G-1" target="UW17VbwZ4yo-81Ci6Z1G-82">
          <mxGeometry relative="1" as="geometry" />
        </mxCell>
        <mxCell id="UW17VbwZ4yo-81Ci6Z1G-1" value="&lt;font style=&quot;font-size: 18px;&quot;&gt;Engin&lt;/font&gt;&lt;span style=&quot;font-size: 18px; background-color: initial;&quot;&gt;eering&lt;/span&gt;" style="whiteSpace=wrap;html=1;rounded=1;fillColor=#e1d5e7;strokeColor=#9673a6;" vertex="1" parent="1">
          <mxGeometry x="470" y="510" width="120" height="60" as="geometry" />
        </mxCell>
        <mxCell id="UW17VbwZ4yo-81Ci6Z1G-3" value="&lt;font style=&quot;font-size: 18px;&quot;&gt;Architecture&lt;br&gt;&amp;amp; Art&lt;/font&gt;" style="shape=step;perimeter=stepPerimeter;whiteSpace=wrap;html=1;fixedSize=1;" vertex="1" parent="1">
          <mxGeometry x="-827" y="390" width="120" height="80" as="geometry" />
        </mxCell>
        <mxCell id="UW17VbwZ4yo-81Ci6Z1G-4" value="&lt;span style=&quot;font-size: 18px;&quot;&gt;Social&lt;br&gt;Hierarchy&lt;/span&gt;" style="shape=step;perimeter=stepPerimeter;whiteSpace=wrap;html=1;fixedSize=1;" vertex="1" parent="1">
          <mxGeometry x="-827" y="210" width="120" height="80" as="geometry" />
        </mxCell>
        <mxCell id="UW17VbwZ4yo-81Ci6Z1G-5" value="&lt;span style=&quot;font-size: 18px;&quot;&gt;Warfare&lt;/span&gt;" style="shape=step;perimeter=stepPerimeter;whiteSpace=wrap;html=1;fixedSize=1;" vertex="1" parent="1">
          <mxGeometry x="-827" y="620" width="120" height="80" as="geometry" />
        </mxCell>
        <mxCell id="UW17VbwZ4yo-81Ci6Z1G-6" value="&lt;span style=&quot;font-size: 18px;&quot;&gt;Agriculture&lt;/span&gt;" style="shape=step;perimeter=stepPerimeter;whiteSpace=wrap;html=1;fixedSize=1;" vertex="1" parent="1">
          <mxGeometry x="-827" y="800" width="120" height="80" as="geometry" />
        </mxCell>
        <mxCell id="UW17VbwZ4yo-81Ci6Z1G-7" value="&lt;span style=&quot;font-size: 18px;&quot;&gt;Healthcare&lt;/span&gt;" style="shape=step;perimeter=stepPerimeter;whiteSpace=wrap;html=1;fixedSize=1;" vertex="1" parent="1">
          <mxGeometry x="-827" y="970" width="120" height="80" as="geometry" />
        </mxCell>
        <mxCell id="UW17VbwZ4yo-81Ci6Z1G-8" value="&lt;font style=&quot;font-size: 18px;&quot;&gt;Clothing&lt;/font&gt;" style="shape=step;perimeter=stepPerimeter;whiteSpace=wrap;html=1;fixedSize=1;" vertex="1" parent="1">
          <mxGeometry x="-827" y="30" width="120" height="80" as="geometry" />
        </mxCell>
        <mxCell id="UW17VbwZ4yo-81Ci6Z1G-23" value="" style="edgeStyle=orthogonalEdgeStyle;rounded=0;orthogonalLoop=1;jettySize=auto;html=1;" edge="1" parent="1" source="UW17VbwZ4yo-81Ci6Z1G-12" target="UW17VbwZ4yo-81Ci6Z1G-22">
          <mxGeometry relative="1" as="geometry" />
        </mxCell>
        <mxCell id="UW17VbwZ4yo-81Ci6Z1G-47" style="edgeStyle=orthogonalEdgeStyle;rounded=0;orthogonalLoop=1;jettySize=auto;html=1;exitX=0.5;exitY=0;exitDx=0;exitDy=0;entryX=0;entryY=0.5;entryDx=0;entryDy=0;" edge="1" parent="1" source="UW17VbwZ4yo-81Ci6Z1G-12" target="UW17VbwZ4yo-81Ci6Z1G-46">
          <mxGeometry relative="1" as="geometry" />
        </mxCell>
        <mxCell id="UW17VbwZ4yo-81Ci6Z1G-12" value="&lt;font style=&quot;font-size: 18px;&quot;&gt;Simple&lt;br&gt;Furniture&lt;/font&gt;" style="whiteSpace=wrap;html=1;rounded=1;" vertex="1" parent="1">
          <mxGeometry x="-230" y="400" width="120" height="60" as="geometry" />
        </mxCell>
        <mxCell id="UW17VbwZ4yo-81Ci6Z1G-32" value="" style="edgeStyle=orthogonalEdgeStyle;rounded=0;orthogonalLoop=1;jettySize=auto;html=1;" edge="1" parent="1" source="UW17VbwZ4yo-81Ci6Z1G-14" target="UW17VbwZ4yo-81Ci6Z1G-31">
          <mxGeometry relative="1" as="geometry" />
        </mxCell>
        <mxCell id="UW17VbwZ4yo-81Ci6Z1G-14" value="&lt;font style=&quot;font-size: 18px;&quot;&gt;Hunting&lt;/font&gt;" style="rounded=1;whiteSpace=wrap;html=1;" vertex="1" parent="1">
          <mxGeometry x="-440" y="630" width="120" height="60" as="geometry" />
        </mxCell>
        <mxCell id="UW17VbwZ4yo-81Ci6Z1G-68" style="edgeStyle=orthogonalEdgeStyle;rounded=0;orthogonalLoop=1;jettySize=auto;html=1;exitX=1;exitY=0.5;exitDx=0;exitDy=0;entryX=0;entryY=0.5;entryDx=0;entryDy=0;" edge="1" parent="1" source="UW17VbwZ4yo-81Ci6Z1G-16" target="UW17VbwZ4yo-81Ci6Z1G-65">
          <mxGeometry relative="1" as="geometry" />
        </mxCell>
        <mxCell id="UW17VbwZ4yo-81Ci6Z1G-79" style="edgeStyle=orthogonalEdgeStyle;rounded=0;orthogonalLoop=1;jettySize=auto;html=1;exitX=1;exitY=0.5;exitDx=0;exitDy=0;entryX=0;entryY=0.5;entryDx=0;entryDy=0;" edge="1" parent="1" source="UW17VbwZ4yo-81Ci6Z1G-16" target="UW17VbwZ4yo-81Ci6Z1G-62">
          <mxGeometry relative="1" as="geometry" />
        </mxCell>
        <mxCell id="UW17VbwZ4yo-81Ci6Z1G-16" value="&lt;font style=&quot;font-size: 18px;&quot;&gt;Foraging&lt;/font&gt;" style="rounded=1;whiteSpace=wrap;html=1;" vertex="1" parent="1">
          <mxGeometry x="-440" y="780" width="120" height="60" as="geometry" />
        </mxCell>
        <mxCell id="UW17VbwZ4yo-81Ci6Z1G-28" value="" style="edgeStyle=orthogonalEdgeStyle;rounded=0;orthogonalLoop=1;jettySize=auto;html=1;" edge="1" parent="1" source="UW17VbwZ4yo-81Ci6Z1G-18" target="UW17VbwZ4yo-81Ci6Z1G-27">
          <mxGeometry relative="1" as="geometry" />
        </mxCell>
        <mxCell id="UW17VbwZ4yo-81Ci6Z1G-60" style="edgeStyle=orthogonalEdgeStyle;rounded=0;orthogonalLoop=1;jettySize=auto;html=1;exitX=0.5;exitY=1;exitDx=0;exitDy=0;entryX=0;entryY=0.5;entryDx=0;entryDy=0;" edge="1" parent="1" source="UW17VbwZ4yo-81Ci6Z1G-18" target="UW17VbwZ4yo-81Ci6Z1G-59">
          <mxGeometry relative="1" as="geometry" />
        </mxCell>
        <mxCell id="UW17VbwZ4yo-81Ci6Z1G-18" value="&lt;font style=&quot;font-size: 18px;&quot;&gt;Simple&lt;br&gt;Clothing&lt;/font&gt;" style="whiteSpace=wrap;html=1;rounded=1;" vertex="1" parent="1">
          <mxGeometry x="-440" y="40" width="120" height="60" as="geometry" />
        </mxCell>
        <mxCell id="UW17VbwZ4yo-81Ci6Z1G-22" value="&lt;font style=&quot;font-size: 18px;&quot;&gt;Complex&lt;br&gt;Furniture&lt;/font&gt;" style="whiteSpace=wrap;html=1;rounded=1;" vertex="1" parent="1">
          <mxGeometry x="310" y="400" width="120" height="60" as="geometry" />
        </mxCell>
        <mxCell id="UW17VbwZ4yo-81Ci6Z1G-38" style="edgeStyle=orthogonalEdgeStyle;rounded=0;orthogonalLoop=1;jettySize=auto;html=1;exitX=0.5;exitY=1;exitDx=0;exitDy=0;entryX=0;entryY=0.5;entryDx=0;entryDy=0;" edge="1" parent="1" source="UW17VbwZ4yo-81Ci6Z1G-27" target="UW17VbwZ4yo-81Ci6Z1G-37">
          <mxGeometry relative="1" as="geometry" />
        </mxCell>
        <mxCell id="UW17VbwZ4yo-81Ci6Z1G-27" value="&lt;font style=&quot;font-size: 18px;&quot;&gt;Complex&lt;br&gt;Clothing&lt;/font&gt;" style="whiteSpace=wrap;html=1;rounded=1;" vertex="1" parent="1">
          <mxGeometry x="-40" y="40" width="120" height="60" as="geometry" />
        </mxCell>
        <mxCell id="UW17VbwZ4yo-81Ci6Z1G-31" value="&lt;font style=&quot;font-size: 18px;&quot;&gt;Greatbow&lt;/font&gt;" style="whiteSpace=wrap;html=1;rounded=1;" vertex="1" parent="1">
          <mxGeometry x="-40" y="630" width="120" height="60" as="geometry" />
        </mxCell>
        <mxCell id="UW17VbwZ4yo-81Ci6Z1G-33" value="&lt;font style=&quot;font-size: 18px;&quot;&gt;Long&lt;br&gt;Blades&lt;/font&gt;" style="whiteSpace=wrap;html=1;rounded=1;" vertex="1" parent="1">
          <mxGeometry x="310" y="630" width="120" height="60" as="geometry" />
        </mxCell>
        <mxCell id="UW17VbwZ4yo-81Ci6Z1G-34" value="&lt;span style=&quot;font-size: 18px;&quot;&gt;Plate&lt;br&gt;Armor&lt;/span&gt;" style="whiteSpace=wrap;html=1;rounded=1;" vertex="1" parent="1">
          <mxGeometry x="310" y="710" width="120" height="60" as="geometry" />
        </mxCell>
        <mxCell id="UW17VbwZ4yo-81Ci6Z1G-40" value="" style="edgeStyle=orthogonalEdgeStyle;rounded=0;orthogonalLoop=1;jettySize=auto;html=1;" edge="1" parent="1" source="UW17VbwZ4yo-81Ci6Z1G-37" target="UW17VbwZ4yo-81Ci6Z1G-39">
          <mxGeometry relative="1" as="geometry" />
        </mxCell>
        <mxCell id="UW17VbwZ4yo-81Ci6Z1G-37" value="&lt;span style=&quot;font-size: 18px;&quot;&gt;Noble&lt;br&gt;Apparel&lt;/span&gt;" style="whiteSpace=wrap;html=1;rounded=1;" vertex="1" parent="1">
          <mxGeometry x="130" y="220" width="120" height="60" as="geometry" />
        </mxCell>
        <mxCell id="UW17VbwZ4yo-81Ci6Z1G-39" value="&lt;font style=&quot;font-size: 18px;&quot;&gt;Royal&lt;br&gt;Apparel&lt;/font&gt;" style="whiteSpace=wrap;html=1;rounded=1;" vertex="1" parent="1">
          <mxGeometry x="310" y="220" width="120" height="60" as="geometry" />
        </mxCell>
        <mxCell id="UW17VbwZ4yo-81Ci6Z1G-42" value="&lt;font style=&quot;font-size: 18px;&quot;&gt;Gunpowder&lt;/font&gt;" style="whiteSpace=wrap;html=1;rounded=1;fillColor=#e1d5e7;strokeColor=#9673a6;" vertex="1" parent="1">
          <mxGeometry x="640" y="670" width="120" height="60" as="geometry" />
        </mxCell>
        <mxCell id="UW17VbwZ4yo-81Ci6Z1G-49" value="" style="edgeStyle=orthogonalEdgeStyle;rounded=0;orthogonalLoop=1;jettySize=auto;html=1;" edge="1" parent="1" source="UW17VbwZ4yo-81Ci6Z1G-46" target="UW17VbwZ4yo-81Ci6Z1G-48">
          <mxGeometry relative="1" as="geometry" />
        </mxCell>
        <mxCell id="UW17VbwZ4yo-81Ci6Z1G-46" value="&lt;span style=&quot;font-size: 18px;&quot;&gt;Harp&lt;/span&gt;" style="whiteSpace=wrap;html=1;rounded=1;" vertex="1" parent="1">
          <mxGeometry x="130" y="310" width="120" height="60" as="geometry" />
        </mxCell>
        <mxCell id="UW17VbwZ4yo-81Ci6Z1G-48" value="&lt;font style=&quot;font-size: 18px;&quot;&gt;Harpsichord&lt;/font&gt;" style="whiteSpace=wrap;html=1;rounded=1;" vertex="1" parent="1">
          <mxGeometry x="640" y="310" width="120" height="60" as="geometry" />
        </mxCell>
        <mxCell id="UW17VbwZ4yo-81Ci6Z1G-51" value="&lt;font style=&quot;font-size: 18px;&quot;&gt;Carpet Making&lt;/font&gt;" style="text;html=1;align=center;verticalAlign=middle;whiteSpace=wrap;rounded=0;" vertex="1" parent="1">
          <mxGeometry x="-500" y="100" width="60" height="30" as="geometry" />
        </mxCell>
        <mxCell id="UW17VbwZ4yo-81Ci6Z1G-52" value="&lt;font style=&quot;font-size: 18px;&quot;&gt;Passive&lt;br&gt;Cooler&lt;/font&gt;" style="text;html=1;align=center;verticalAlign=middle;whiteSpace=wrap;rounded=0;" vertex="1" parent="1">
          <mxGeometry x="-280" y="470" width="60" height="30" as="geometry" />
        </mxCell>
        <mxCell id="UW17VbwZ4yo-81Ci6Z1G-53" value="&lt;span style=&quot;font-size: 18px;&quot;&gt;Pemmican&lt;/span&gt;" style="text;html=1;align=center;verticalAlign=middle;whiteSpace=wrap;rounded=0;" vertex="1" parent="1">
          <mxGeometry x="-500" y="840" width="60" height="30" as="geometry" />
        </mxCell>
        <mxCell id="UW17VbwZ4yo-81Ci6Z1G-54" value="&lt;span style=&quot;font-size: 18px;&quot;&gt;Recurve&lt;br&gt;Bow&lt;/span&gt;" style="text;html=1;align=center;verticalAlign=middle;whiteSpace=wrap;rounded=0;" vertex="1" parent="1">
          <mxGeometry x="-500" y="700" width="60" height="30" as="geometry" />
        </mxCell>
        <mxCell id="UW17VbwZ4yo-81Ci6Z1G-59" value="&lt;span style=&quot;font-size: 18px;&quot;&gt;Tanning&lt;/span&gt;" style="whiteSpace=wrap;html=1;rounded=1;fillColor=#e1d5e7;strokeColor=#9673a6;" vertex="1" parent="1">
          <mxGeometry x="-230" y="220" width="120" height="60" as="geometry" />
        </mxCell>
        <mxCell id="UW17VbwZ4yo-81Ci6Z1G-74" value="" style="edgeStyle=orthogonalEdgeStyle;rounded=0;orthogonalLoop=1;jettySize=auto;html=1;" edge="1" parent="1" source="UW17VbwZ4yo-81Ci6Z1G-62" target="UW17VbwZ4yo-81Ci6Z1G-73">
          <mxGeometry relative="1" as="geometry" />
        </mxCell>
        <mxCell id="UW17VbwZ4yo-81Ci6Z1G-80" style="edgeStyle=orthogonalEdgeStyle;rounded=0;orthogonalLoop=1;jettySize=auto;html=1;exitX=1;exitY=0.5;exitDx=0;exitDy=0;entryX=0;entryY=0.5;entryDx=0;entryDy=0;" edge="1" parent="1" source="UW17VbwZ4yo-81Ci6Z1G-62" target="UW17VbwZ4yo-81Ci6Z1G-76">
          <mxGeometry relative="1" as="geometry" />
        </mxCell>
        <mxCell id="UW17VbwZ4yo-81Ci6Z1G-62" value="&lt;font style=&quot;font-size: 18px;&quot;&gt;Agriculture&lt;/font&gt;" style="whiteSpace=wrap;html=1;rounded=1;" vertex="1" parent="1">
          <mxGeometry x="-230" y="860" width="120" height="60" as="geometry" />
        </mxCell>
        <mxCell id="UW17VbwZ4yo-81Ci6Z1G-72" value="" style="edgeStyle=orthogonalEdgeStyle;rounded=0;orthogonalLoop=1;jettySize=auto;html=1;" edge="1" parent="1" source="UW17VbwZ4yo-81Ci6Z1G-65" target="UW17VbwZ4yo-81Ci6Z1G-71">
          <mxGeometry relative="1" as="geometry" />
        </mxCell>
        <mxCell id="UW17VbwZ4yo-81Ci6Z1G-65" value="&lt;font style=&quot;font-size: 18px;&quot;&gt;Cooking&lt;/font&gt;" style="whiteSpace=wrap;html=1;rounded=1;fillColor=#e1d5e7;strokeColor=#9673a6;" vertex="1" parent="1">
          <mxGeometry x="-40" y="780" width="120" height="60" as="geometry" />
        </mxCell>
        <mxCell id="UW17VbwZ4yo-81Ci6Z1G-69" value="&lt;span style=&quot;font-size: 18px;&quot;&gt;Tree Sowing&lt;/span&gt;" style="text;html=1;align=center;verticalAlign=middle;whiteSpace=wrap;rounded=0;" vertex="1" parent="1">
          <mxGeometry x="-280" y="920" width="60" height="30" as="geometry" />
        </mxCell>
        <mxCell id="UW17VbwZ4yo-81Ci6Z1G-70" value="&lt;span style=&quot;font-size: 18px;&quot;&gt;Cocoa&lt;/span&gt;" style="text;html=1;align=center;verticalAlign=middle;whiteSpace=wrap;rounded=0;" vertex="1" parent="1">
          <mxGeometry x="-120" y="830" width="60" height="30" as="geometry" />
        </mxCell>
        <mxCell id="UW17VbwZ4yo-81Ci6Z1G-71" value="&lt;font style=&quot;font-size: 18px;&quot;&gt;Beer&lt;br&gt;Brewing&lt;/font&gt;" style="whiteSpace=wrap;html=1;rounded=1;" vertex="1" parent="1">
          <mxGeometry x="130" y="780" width="120" height="60" as="geometry" />
        </mxCell>
        <mxCell id="UW17VbwZ4yo-81Ci6Z1G-73" value="&lt;font style=&quot;font-size: 18px;&quot;&gt;Devilstrand&lt;/font&gt;" style="whiteSpace=wrap;html=1;rounded=1;" vertex="1" parent="1">
          <mxGeometry x="470" y="860" width="120" height="60" as="geometry" />
        </mxCell>
        <mxCell id="UW17VbwZ4yo-81Ci6Z1G-78" value="" style="edgeStyle=orthogonalEdgeStyle;rounded=0;orthogonalLoop=1;jettySize=auto;html=1;" edge="1" parent="1" source="UW17VbwZ4yo-81Ci6Z1G-76" target="UW17VbwZ4yo-81Ci6Z1G-77">
          <mxGeometry relative="1" as="geometry" />
        </mxCell>
        <mxCell id="UW17VbwZ4yo-81Ci6Z1G-76" value="&lt;span style=&quot;font-size: 18px;&quot;&gt;Psychoid&lt;br&gt;Brewing&lt;/span&gt;" style="rounded=1;whiteSpace=wrap;html=1;" vertex="1" parent="1">
          <mxGeometry x="-40" y="970" width="120" height="60" as="geometry" />
        </mxCell>
        <mxCell id="UW17VbwZ4yo-81Ci6Z1G-77" value="&lt;font style=&quot;font-size: 18px;&quot;&gt;Drug&lt;br&gt;Production&lt;/font&gt;" style="whiteSpace=wrap;html=1;rounded=1;" vertex="1" parent="1">
          <mxGeometry x="470" y="970" width="120" height="60" as="geometry" />
        </mxCell>
        <mxCell id="UW17VbwZ4yo-81Ci6Z1G-82" value="&lt;font style=&quot;font-size: 18px;&quot;&gt;Electricity&lt;/font&gt;" style="whiteSpace=wrap;html=1;fillColor=#dae8fc;strokeColor=#6c8ebf;rounded=1;" vertex="1" parent="1">
          <mxGeometry x="890" y="510" width="120" height="60" as="geometry" />
        </mxCell>
      </root>
    </mxGraphModel>
  </diagram>
</mxfile>
